<?xml version="1.0" encoding="UTF-8" standalone="no"?>
<svg
   width="32"
   height="32"
   preserveAspectRatio="xMidYMid meet"
   viewBox="0 0 32 32"
   style="-ms-transform: rotate(360deg); -webkit-transform: rotate(360deg); transform: rotate(360deg);"
   version="1.1"
   id="svg4"
   sodipodi:docname="book.svg"
   inkscape:version="1.2.1 (9c6d41e410, 2022-07-14, custom)"
   xmlns:inkscape="http://www.inkscape.org/namespaces/inkscape"
   xmlns:sodipodi="http://sodipodi.sourceforge.net/DTD/sodipodi-0.dtd"
   xmlns="http://www.w3.org/2000/svg"
   xmlns:svg="http://www.w3.org/2000/svg">
  <defs
     id="defs8" />
  <sodipodi:namedview
     id="namedview6"
     pagecolor="#ffffff"
     bordercolor="#000000"
     borderopacity="0.25"
     inkscape:showpageshadow="2"
     inkscape:pageopacity="0.0"
     inkscape:pagecheckerboard="0"
     inkscape:deskcolor="#d1d1d1"
     showgrid="false"
     inkscape:zoom="11.313708"
     inkscape:cx="18.915106"
     inkscape:cy="21.92031"
     inkscape:window-width="1920"
     inkscape:window-height="1015"
     inkscape:window-x="0"
     inkscape:window-y="0"
     inkscape:window-maximized="1"
     inkscape:current-layer="svg4" />
  <path
     fill="#000000"
     d="M 27.933375,2.8146031 A 1.0621929,1.0621929 0 0 0 26.960911,2.6969861 L 11.449985,8.6154375 C 10.774595,8.8724978 9.9306606,8.9973904 9.0636888,8.9973904 7.8547772,8.9998154 6.6022141,8.7524554 5.7328165,8.4153669 A 4.172381,4.172381 0 0 1 4.9761859,8.049177 C 5.0453019,8.020076 5.1216919,7.988549 5.2114205,7.958236 L 19.317002,2.5769436 21.41835,3.3699506 V 1.0515569 A 1.053705,1.053705 0 0 0 20.96607,0.18579702 1.0634054,1.0634054 0 0 0 19.993605,0.06817974 L 4.4838911,5.9842062 C 4.0037217,6.1576006 3.5950927,6.363734 3.2470911,6.6692963 2.9027272,6.9651583 2.6080779,7.4513904 2.612928,7.9909747 c 0,0.015763 0.00485,0.038801 0.00485,0.038801 V 28.868642 c 0,0.0097 -0.00364,0.01819 -0.00364,0.02425 0,0.0085 0.00364,0.01212 0.00364,0.02061 v 0.02061 h 0.00243 c 0.033951,0.727529 0.4486431,1.191936 0.8487843,1.521749 1.2525631,0.973677 3.3563355,1.518111 5.5934888,1.544788 1.0609799,0 2.1365109,-0.140657 3.1332259,-0.517758 l 15.515777,-5.919666 a 1.0464298,1.0464298 0 0 0 0.676603,-0.982163 V 3.6827882 A 1.0549176,1.0549176 0 0 0 27.934588,2.8170283 Z M 3.5829672,11.435826 a 1.0488549,1.0488549 0 0 1 0.084879,0.331027 l 0.00364,0.06426 c 0.019401,0.320114 0.1576314,0.492295 0.4401553,0.739655 0.9494258,0.760268 2.8882916,1.309553 4.9508376,1.326529 A 8.2089565,8.2089565 0 0 0 11.40512,13.577188 V 15.74765 C 10.620601,15.922257 9.8288065,15.998648 9.050351,15.998648 7.0205435,15.967122 5.0901655,15.570619 3.5817547,14.721834 v -3.286008 z m 5.4685963,15.58368 c -2.03102,-0.03395 -3.961398,-0.429242 -5.4685963,-1.27924 v -3.289645 a 0.97246427,0.97246427 0 0 1 0.084879,0.334664 l 0.00364,0.06426 c 0.021826,0.322539 0.1576314,0.493508 0.4413678,0.742081 0.9482133,0.757842 2.8858665,1.309553 4.9496251,1.321678 0.8124077,0 1.6090529,-0.097 2.3426439,-0.315262 v 2.168036 a 10.800174,10.800174 0 0 1 -2.3559818,0.252211 z"
     id="path2"
     style="stroke-width:1.21255" />
</svg>
