<?xml version="1.0" encoding="UTF-8" standalone="no"?>
<svg
   width="32"
   height="32"
   preserveAspectRatio="xMidYMid meet"
   viewBox="0 0 32 32"
   style="-ms-transform: rotate(360deg); -webkit-transform: rotate(360deg); transform: rotate(360deg);"
   version="1.1"
   id="svg4"
   sodipodi:docname="calendar_icon.svg"
   inkscape:version="1.2.1 (9c6d41e410, 2022-07-14, custom)"
   xmlns:inkscape="http://www.inkscape.org/namespaces/inkscape"
   xmlns:sodipodi="http://sodipodi.sourceforge.net/DTD/sodipodi-0.dtd"
   xmlns="http://www.w3.org/2000/svg"
   xmlns:svg="http://www.w3.org/2000/svg">
  <defs
     id="defs8" />
  <sodipodi:namedview
     id="namedview6"
     pagecolor="#ffffff"
     bordercolor="#000000"
     borderopacity="0.25"
     inkscape:showpageshadow="2"
     inkscape:pageopacity="0.0"
     inkscape:pagecheckerboard="0"
     inkscape:deskcolor="#d1d1d1"
     showgrid="false"
     inkscape:zoom="9.2144852"
     inkscape:cx="-23.061516"
     inkscape:cy="22.790204"
     inkscape:window-width="1920"
     inkscape:window-height="1015"
     inkscape:window-x="0"
     inkscape:window-y="0"
     inkscape:window-maximized="1"
     inkscape:current-layer="svg4" />
  <path
     fill="#000000"
     d="m 24.450741,-0.0575001 h -2.816778 v 4.6969765 h 2.816778 z m 4.811056,1.6421813 H 25.859129 V 6.0492735 H 20.225574 V 1.5846812 H 11.775242 V 6.0464566 H 6.1445043 V 1.5846812 H 2.7362034 V 31.9425 H 29.261797 Z M 27.856224,30.534113 H 4.147409 V 13.189804 H 27.854817 V 30.534113 Z M 10.366854,-0.0560916 H 7.5500762 v 4.695568 H 10.366854 V -0.0575001 Z M 20.828366,27.238481 h 2.208353 V 16.267134 h -1.797105 c 0,0.09577 -0.03098,0.243651 -0.08733,0.440825 -0.09295,0.326747 -0.236609,0.591523 -0.422515,0.788698 a 1.999912,1.999912 0 0 1 -1.056289,0.573214 c -0.27041,0.06057 -0.746445,0.10563 -1.426697,0.136613 v 1.467542 h 2.580167 v 7.563047 z m -8.105279,-1.484442 c -0.690111,0 -1.164737,-0.267593 -1.426697,-0.795738 -0.14084,-0.285905 -0.211259,-0.647859 -0.211259,-1.088685 H 8.9669152 c 0.035209,0.8732 0.2112582,1.577395 0.5295541,2.118217 0.6056067,1.014039 1.6816167,1.521059 3.2336607,1.521059 1.260508,0 2.211171,-0.352096 2.853396,-1.056291 0.640817,-0.704194 0.963337,-1.518242 0.963337,-2.444962 0,-0.88306 -0.274635,-1.577396 -0.825315,-2.087233 -0.366182,-0.338014 -0.64786,-0.507019 -0.847851,-0.507019 0.26337,-0.09859 0.514063,-0.290129 0.756306,-0.567581 0.38308,-0.442236 0.57462,-0.985872 0.57462,-1.633731 0,-0.911228 -0.32111,-1.639364 -0.963336,-2.183004 -0.640816,-0.542229 -1.48585,-0.81264 -2.535099,-0.81264 -0.563357,0 -1.037983,0.07043 -1.426699,0.205625 A 2.8660711,2.8660711 0 0 0 10.2739,17.01358 C 9.8936349,17.375535 9.6189991,17.771291 9.4429505,18.199444 A 5.4645483,5.4645483 0 0 0 9.1612728,19.751487 H 11.17527 c -0.0098,-0.540821 0.104219,-0.971788 0.343645,-1.295717 0.239426,-0.321112 0.612649,-0.483078 1.11967,-0.483078 0.442233,0 0.788697,0.13239 1.028123,0.394349 0.246469,0.26196 0.366182,0.601383 0.366182,1.021083 0,0.645041 -0.236609,1.074599 -0.714053,1.285858 -0.276045,0.126756 -0.764756,0.194357 -1.464725,0.204217 v 1.543592 c 0.715462,0 1.239383,0.07043 1.570354,0.205627 0.583073,0.242243 0.873199,0.723911 0.873199,1.445005 0,0.545048 -0.15492,0.961932 -0.4704,1.253467 -0.312663,0.281678 -0.680252,0.426742 -1.102768,0.426742 z"
     id="path2"
     style="stroke-width:1.40839" />
</svg>
