<?xml version="1.0" encoding="UTF-8" standalone="no"?>
<svg
   width="32"
   height="32"
   preserveAspectRatio="xMidYMid meet"
   viewBox="0 0 32 32"
   style="-ms-transform: rotate(360deg); -webkit-transform: rotate(360deg); transform: rotate(360deg);"
   version="1.1"
   id="svg212"
   sodipodi:docname="crown.svg"
   inkscape:version="1.2.1 (9c6d41e410, 2022-07-14, custom)"
   xmlns:inkscape="http://www.inkscape.org/namespaces/inkscape"
   xmlns:sodipodi="http://sodipodi.sourceforge.net/DTD/sodipodi-0.dtd"
   xmlns="http://www.w3.org/2000/svg"
   xmlns:svg="http://www.w3.org/2000/svg">
  <defs
     id="defs216" />
  <sodipodi:namedview
     id="namedview214"
     pagecolor="#ffffff"
     bordercolor="#000000"
     borderopacity="0.25"
     inkscape:showpageshadow="2"
     inkscape:pageopacity="0.0"
     inkscape:pagecheckerboard="0"
     inkscape:deskcolor="#d1d1d1"
     showgrid="false"
     inkscape:zoom="26.0625"
     inkscape:cx="16"
     inkscape:cy="16"
     inkscape:window-width="1920"
     inkscape:window-height="1015"
     inkscape:window-x="0"
     inkscape:window-y="0"
     inkscape:window-maximized="1"
     inkscape:current-layer="svg212" />
  <path
     fill="#000000"
     d="m 16,6.9565714 c 1.150857,0 2.086857,-0.9371428 2.086857,-2.0868571 C 18.086857,3.72 17.149714,2.784 16,2.784 c -1.149714,0 -2.086857,0.9371429 -2.086857,2.0868571 0,1.152 0.937143,2.088 2.086857,2.088 z m 0,-3.4788571 a 1.3925714,1.3925714 0 1 1 0,2.7851428 1.3925714,1.3925714 0 0 1 0,-2.7851428 z M 3.3405714,12.906286 c 0.928,2.982857 1.2937143,7.594285 1.4365715,10.754285 0.030857,0 0.060571,-0.0091 0.091429,-0.0091 H 27.131429 c 0.03086,0 0.06171,0.0091 0.09143,0.01143 0.142857,-3.162286 0.508572,-7.771428 1.436572,-10.757714 -0.514286,-0.262857 -0.929143,-0.674286 -1.2,-1.186286 -2.742858,2.340572 -5.893715,7.062857 -5.893715,7.062857 0,0 -3.458285,-6.923428 -4.92,-11.213714 -0.208,0.051429 -0.422857,0.084571 -0.645714,0.084571 -0.222857,0 -0.437714,-0.034286 -0.645714,-0.083429 -1.460572,4.290286 -4.92,11.213714 -4.92,11.213714 0,0 -3.1497146,-4.722286 -5.8937146,-7.062857 -0.2685714,0.509714 -0.6857143,0.923429 -1.2,1.185143 z m 0.8342857,-2.472 c 0,-1.1508574 -0.9371428,-2.0868574 -2.088,-2.0868574 C 0.936,8.3474286 0,9.2845714 0,10.434286 c 0,1.149714 0.93714286,2.086857 2.0868571,2.086857 1.1497143,0 2.0868572,-0.937143 2.0868572,-2.086857 z m -2.088,1.392 a 1.3925715,1.3925715 0 1 1 0,-2.7851431 1.3937143,1.3937143 0 0 1 0,2.7874281 z M 27.131429,25.043429 H 4.8685714 A 2.0868571,2.0868571 0 0 0 4.8697143,29.216 H 27.132571 a 2.088,2.088 0 0 0 -0.0011,-4.174857 z M 29.913143,8.3462857 c -1.150857,0 -2.086857,0.9371429 -2.086857,2.0880003 0,1.150857 0.937143,2.086857 2.086857,2.086857 C 31.062857,12.521143 32,11.584 32,10.434286 32,9.2845714 31.062857,8.3474286 29.913143,8.3474286 Z m 0,3.4800003 a 1.3937146,1.3937146 0 1 1 -0.0011,-2.7874289 1.3948573,1.3948573 0 0 1 0.0011,2.7897139 z"
     id="path210"
     style="stroke-width:1.14286" />
</svg>
