<svg width="84" height="91" viewBox="0 0 84 91" fill="none" xmlns="http://www.w3.org/2000/svg">
<mask id="path-1-inside-1_5_15" fill="white">
<path fill-rule="evenodd" clip-rule="evenodd" d="M28 3.5C28 6.833 27.833 7 24.5 7C21.167 7 21 7.167 21 10.5C21 13.833 20.833 14 17.5 14C14.167 14 14 14.167 14 17.5C14 20.833 13.833 21 10.5 21H7V28V35H3.5H0V49V63H3.5H7V70V77H10.5C13.833 77 14 77.167 14 80.5C14 83.833 14.167 84 17.5 84C20.833 84 21 84.167 21 87.5V91H42H63V87.5C63 84.167 63.167 84 66.5 84C69.833 84 70 83.833 70 80.5C70 77.167 70.167 77 73.5 77H77V70V63H80.5H84V49V35H80.5H77V28V21H73.5C70.167 21 70 20.833 70 17.5C70 14.167 69.833 14 66.5 14C63.167 14 63 13.833 63 10.5C63 7.167 62.833 7 59.5 7C56.167 7 56 6.833 56 3.5V0H42H28V3.5ZM56 10.5C56 13.833 56.167 14 59.5 14C62.833 14 63 14.167 63 17.5C63 20.833 63.167 21 66.5 21H70V28V35H73.5H77V49V63H73.5H70V70V77H66.5C63.167 77 63 77.167 63 80.5V84H42H21V80.5C21 77.167 20.833 77 17.5 77H14V70V63H10.5H7V49V35H10.5H14V28V21H17.5C20.833 21 21 20.833 21 17.5C21 14.167 21.167 14 24.5 14C27.833 14 28 13.833 28 10.5V7H42H56V10.5ZM25 35.5C25 44.333 24.86 45 23 45C21.381 45 21 45.667 21 48.5C21 51.333 21.381 52 23 52C24.86 52 25 52.667 25 61.5V71H36.5C47.333 71 48 70.884 48 69C48 67.242 48.667 67 53.5 67H59V62C59 57.333 59.167 57 61.5 57C63.971 57 64 56.9 64 48.5C64 40.1 63.971 40 61.5 40C59.167 40 59 39.667 59 35V30H53.5C48.667 30 48 29.758 48 28C48 26.116 47.333 26 36.5 26H25V35.5ZM48 37.5C48 39.611 48.467 40 51 40H54V48.5V57H51C48.467 57 48 57.389 48 59.5C48 61.91 47.767 62 41.5 62H35V57V52H39.5C43.976 52 44 51.981 44 48.5C44 45.019 43.976 45 39.5 45H35V40V35H41.5C47.767 35 48 35.09 48 37.5Z"/>
</mask>
<path fill-rule="evenodd" clip-rule="evenodd" d="M28 3.5C28 6.833 27.833 7 24.5 7C21.167 7 21 7.167 21 10.5C21 13.833 20.833 14 17.5 14C14.167 14 14 14.167 14 17.5C14 20.833 13.833 21 10.5 21H7V28V35H3.5H0V49V63H3.5H7V70V77H10.5C13.833 77 14 77.167 14 80.5C14 83.833 14.167 84 17.5 84C20.833 84 21 84.167 21 87.5V91H42H63V87.5C63 84.167 63.167 84 66.5 84C69.833 84 70 83.833 70 80.5C70 77.167 70.167 77 73.5 77H77V70V63H80.5H84V49V35H80.5H77V28V21H73.5C70.167 21 70 20.833 70 17.5C70 14.167 69.833 14 66.5 14C63.167 14 63 13.833 63 10.5C63 7.167 62.833 7 59.5 7C56.167 7 56 6.833 56 3.5V0H42H28V3.5ZM56 10.5C56 13.833 56.167 14 59.5 14C62.833 14 63 14.167 63 17.5C63 20.833 63.167 21 66.5 21H70V28V35H73.5H77V49V63H73.5H70V70V77H66.5C63.167 77 63 77.167 63 80.5V84H42H21V80.5C21 77.167 20.833 77 17.5 77H14V70V63H10.5H7V49V35H10.5H14V28V21H17.5C20.833 21 21 20.833 21 17.5C21 14.167 21.167 14 24.5 14C27.833 14 28 13.833 28 10.5V7H42H56V10.5ZM25 35.5C25 44.333 24.86 45 23 45C21.381 45 21 45.667 21 48.5C21 51.333 21.381 52 23 52C24.86 52 25 52.667 25 61.5V71H36.5C47.333 71 48 70.884 48 69C48 67.242 48.667 67 53.5 67H59V62C59 57.333 59.167 57 61.5 57C63.971 57 64 56.9 64 48.5C64 40.1 63.971 40 61.5 40C59.167 40 59 39.667 59 35V30H53.5C48.667 30 48 29.758 48 28C48 26.116 47.333 26 36.5 26H25V35.5ZM48 37.5C48 39.611 48.467 40 51 40H54V48.5V57H51C48.467 57 48 57.389 48 59.5C48 61.91 47.767 62 41.5 62H35V57V52H39.5C43.976 52 44 51.981 44 48.5C44 45.019 43.976 45 39.5 45H35V40V35H41.5C47.767 35 48 35.09 48 37.5Z" fill="black"/>
<path d="M21 7V6.5H20.5V7H21ZM14 14.5H17.5V13.5H14V14.5ZM20.5 7V10.5H21.5V7H20.5ZM21 7.5H24.5V6.5H21V7.5ZM7 21V20H6V21H7ZM0 35V34H-1V35H0ZM0 63H-1V64H0V63ZM7 77H6V78H7V77ZM21 91H20V92H21V91ZM63 91V92H64V91H63ZM77 77V78H78V77H77ZM84 63V64H85V63H84ZM84 35H85V34H84V35ZM77 21H78V20H77V21ZM56 0H57V-1H56V0ZM28 0V-1H27V0H28ZM70 21H71V20H70V21ZM70 35H69V36H70V35ZM70 63V62H69V63H70ZM70 77V78H71V77H70ZM63 84V85H64V84H63ZM21 84H20V85H21V84ZM14 77H13V78H14V77ZM14 63H15V62H14V63ZM14 35V36H15V35H14ZM14 21V20H13V21H14ZM28 7V6H27V7H28ZM56 7H57V6H56V7ZM25 71H24V72H25V71ZM59 67V68H60V67H59ZM59 30H60V29H59V30ZM25 26V25H24V26H25ZM54 40H55V39H54V40ZM54 57V58H55V57H54ZM35 62H34V63H35V62ZM35 52V51H34V52H35ZM35 45H34V46H35V45ZM35 35V34H34V35H35ZM27 3.5C27 4.34595 26.9879 4.91085 26.9315 5.31449C26.8752 5.71655 26.7947 5.79089 26.7928 5.79277C26.7909 5.79465 26.7166 5.87524 26.3145 5.93147C25.9108 5.98791 25.346 6 24.5 6V8C25.3205 8 26.0264 7.99121 26.5915 7.91219C27.1581 7.83295 27.7505 7.66347 28.207 7.20698C28.6635 6.75049 28.8329 6.15813 28.9122 5.59148C28.9912 5.0264 29 4.32055 29 3.5H27ZM24.5 6C23.6795 6 22.9736 6.00879 22.4085 6.08781C21.8419 6.16705 21.2495 6.33653 20.793 6.79302C20.3365 7.24951 20.1671 7.84187 20.0878 8.40852C20.0088 8.9736 20 9.67945 20 10.5H22C22 9.65405 22.0121 9.08915 22.0685 8.68551C22.1248 8.28345 22.2053 8.20911 22.2072 8.20723C22.2091 8.20535 22.2834 8.12476 22.6855 8.06853C23.0892 8.01209 23.654 8 24.5 8V6ZM20 10.5C20 11.346 19.9879 11.9108 19.9315 12.3145C19.8752 12.7166 19.7947 12.7909 19.7928 12.7928C19.7909 12.7947 19.7166 12.8752 19.3145 12.9315C18.9108 12.9879 18.346 13 17.5 13V15C18.3205 15 19.0264 14.9912 19.5915 14.9122C20.1581 14.8329 20.7505 14.6635 21.207 14.207C21.6635 13.7505 21.8329 13.1581 21.9122 12.5915C21.9912 12.0264 22 11.3205 22 10.5H20ZM17.5 13C16.6795 13 15.9736 13.0088 15.4085 13.0878C14.8419 13.1671 14.2495 13.3365 13.793 13.793C13.3365 14.2495 13.1671 14.8419 13.0878 15.4085C13.0088 15.9736 13 16.6795 13 17.5H15C15 16.654 15.0121 16.0892 15.0685 15.6855C15.1248 15.2834 15.2053 15.2091 15.2072 15.2072C15.2091 15.2053 15.2834 15.1248 15.6855 15.0685C16.0892 15.0121 16.654 15 17.5 15V13ZM13 17.5C13 18.346 12.9879 18.9108 12.9315 19.3145C12.8752 19.7166 12.7947 19.7909 12.7928 19.7928C12.7909 19.7947 12.7166 19.8752 12.3145 19.9315C11.9108 19.9879 11.346 20 10.5 20V22C11.3205 22 12.0264 21.9912 12.5915 21.9122C13.1581 21.8329 13.7505 21.6635 14.207 21.207C14.6635 20.7505 14.8329 20.1581 14.9122 19.5915C14.9912 19.0264 15 18.3205 15 17.5H13ZM10.5 20H7V22H10.5V20ZM6 21V28H8V21H6ZM6 28V35H8V28H6ZM7 34H3.5V36H7V34ZM3.5 34H0V36H3.5V34ZM-1 35V49H1V35H-1ZM-1 49V63H1V49H-1ZM0 64H3.5V62H0V64ZM3.5 64H7V62H3.5V64ZM6 63V70H8V63H6ZM6 70V77H8V70H6ZM7 78H10.5V76H7V78ZM10.5 78C11.346 78 11.9108 78.0121 12.3145 78.0685C12.7166 78.1248 12.7909 78.2054 12.7928 78.2072C12.7947 78.2091 12.8752 78.2834 12.9315 78.6855C12.9879 79.0891 13 79.654 13 80.5H15C15 79.6795 14.9912 78.9736 14.9122 78.4085C14.8329 77.8419 14.6635 77.2495 14.207 76.793C13.7505 76.3365 13.1581 76.1671 12.5915 76.0878C12.0264 76.0088 11.3205 76 10.5 76V78ZM13 80.5C13 81.3205 13.0088 82.0264 13.0878 82.5915C13.1671 83.1581 13.3365 83.7505 13.793 84.207C14.2495 84.6635 14.8419 84.8329 15.4085 84.9122C15.9736 84.9912 16.6795 85 17.5 85V83C16.654 83 16.0892 82.9879 15.6855 82.9315C15.2834 82.8752 15.2091 82.7946 15.2072 82.7928C15.2053 82.7909 15.1248 82.7166 15.0685 82.3145C15.0121 81.9109 15 81.346 15 80.5H13ZM17.5 85C18.346 85 18.9108 85.0121 19.3145 85.0685C19.7166 85.1248 19.7909 85.2054 19.7928 85.2072C19.7947 85.2091 19.8752 85.2834 19.9315 85.6855C19.9879 86.0891 20 86.654 20 87.5H22C22 86.6795 21.9912 85.9736 21.9122 85.4085C21.8329 84.8419 21.6635 84.2495 21.207 83.793C20.7505 83.3365 20.1581 83.1671 19.5915 83.0878C19.0264 83.0088 18.3205 83 17.5 83V85ZM20 87.5V91H22V87.5H20ZM21 92H42V90H21V92ZM42 92H63V90H42V92ZM64 91V87.5H62V91H64ZM64 87.5C64 86.654 64.0121 86.0891 64.0685 85.6855C64.1248 85.2834 64.2054 85.2091 64.2072 85.2072C64.2091 85.2054 64.2834 85.1248 64.6855 85.0685C65.0891 85.0121 65.654 85 66.5 85V83C65.6795 83 64.9736 83.0088 64.4085 83.0878C63.8419 83.1671 63.2495 83.3365 62.793 83.793C62.3365 84.2495 62.1671 84.8419 62.0878 85.4085C62.0088 85.9736 62 86.6795 62 87.5H64ZM66.5 85C67.3205 85 68.0264 84.9912 68.5915 84.9122C69.1581 84.8329 69.7505 84.6635 70.207 84.207C70.6635 83.7505 70.8329 83.1581 70.9122 82.5915C70.9912 82.0264 71 81.3205 71 80.5H69C69 81.346 68.9879 81.9109 68.9315 82.3145C68.8752 82.7166 68.7946 82.7909 68.7928 82.7928C68.7909 82.7946 68.7166 82.8752 68.3145 82.9315C67.9109 82.9879 67.346 83 66.5 83V85ZM71 80.5C71 79.654 71.0121 79.0891 71.0685 78.6855C71.1248 78.2834 71.2054 78.2091 71.2072 78.2072C71.2091 78.2054 71.2834 78.1248 71.6855 78.0685C72.0891 78.0121 72.654 78 73.5 78V76C72.6795 76 71.9736 76.0088 71.4085 76.0878C70.8419 76.1671 70.2495 76.3365 69.793 76.793C69.3365 77.2495 69.1671 77.8419 69.0878 78.4085C69.0088 78.9736 69 79.6795 69 80.5H71ZM73.5 78H77V76H73.5V78ZM78 77V70H76V77H78ZM78 70V63H76V70H78ZM77 64H80.5V62H77V64ZM80.5 64H84V62H80.5V64ZM85 63V49H83V63H85ZM85 49V35H83V49H85ZM84 34H80.5V36H84V34ZM80.5 34H77V36H80.5V34ZM78 35V28H76V35H78ZM78 28V21H76V28H78ZM77 20H73.5V22H77V20ZM73.5 20C72.654 20 72.0891 19.9879 71.6855 19.9315C71.2834 19.8752 71.2091 19.7947 71.2072 19.7928C71.2054 19.7909 71.1248 19.7166 71.0685 19.3145C71.0121 18.9108 71 18.346 71 17.5H69C69 18.3205 69.0088 19.0264 69.0878 19.5915C69.1671 20.1581 69.3365 20.7505 69.793 21.207C70.2495 21.6635 70.8419 21.8329 71.4085 21.9122C71.9736 21.9912 72.6795 22 73.5 22V20ZM71 17.5C71 16.6795 70.9912 15.9736 70.9122 15.4085C70.8329 14.8419 70.6635 14.2495 70.207 13.793C69.7505 13.3365 69.1581 13.1671 68.5915 13.0878C68.0264 13.0088 67.3205 13 66.5 13V15C67.346 15 67.9109 15.0121 68.3145 15.0685C68.7166 15.1248 68.7909 15.2053 68.7928 15.2072C68.7946 15.2091 68.8752 15.2834 68.9315 15.6855C68.9879 16.0892 69 16.654 69 17.5H71ZM66.5 13C65.654 13 65.0891 12.9879 64.6855 12.9315C64.2834 12.8752 64.2091 12.7947 64.2072 12.7928C64.2054 12.7909 64.1248 12.7166 64.0685 12.3145C64.0121 11.9108 64 11.346 64 10.5H62C62 11.3205 62.0088 12.0264 62.0878 12.5915C62.1671 13.1581 62.3365 13.7505 62.793 14.207C63.2495 14.6635 63.8419 14.8329 64.4085 14.9122C64.9736 14.9912 65.6795 15 66.5 15V13ZM64 10.5C64 9.67945 63.9912 8.9736 63.9122 8.40852C63.8329 7.84187 63.6635 7.24951 63.207 6.79302C62.7505 6.33653 62.1581 6.16705 61.5915 6.08781C61.0264 6.00879 60.3205 6 59.5 6V8C60.346 8 60.9108 8.01209 61.3145 8.06853C61.7166 8.12476 61.7909 8.20535 61.7928 8.20723C61.7947 8.20911 61.8752 8.28345 61.9315 8.68551C61.9879 9.08915 62 9.65405 62 10.5H64ZM59.5 6C58.654 6 58.0892 5.98791 57.6855 5.93147C57.2834 5.87524 57.2091 5.79465 57.2072 5.79277C57.2053 5.79089 57.1248 5.71655 57.0685 5.31449C57.0121 4.91085 57 4.34595 57 3.5H55C55 4.32055 55.0088 5.0264 55.0878 5.59148C55.1671 6.15813 55.3365 6.75049 55.793 7.20698C56.2495 7.66347 56.8419 7.83295 57.4085 7.91219C57.9736 7.99121 58.6795 8 59.5 8V6ZM57 3.5V0H55V3.5H57ZM56 -1H42V1H56V-1ZM42 -1H28V1H42V-1ZM27 0V3.5H29V0H27ZM55 10.5C55 11.3205 55.0088 12.0264 55.0878 12.5915C55.1671 13.1581 55.3365 13.7505 55.793 14.207C56.2495 14.6635 56.8419 14.8329 57.4085 14.9122C57.9736 14.9912 58.6795 15 59.5 15V13C58.654 13 58.0892 12.9879 57.6855 12.9315C57.2834 12.8752 57.2091 12.7947 57.2072 12.7928C57.2053 12.7909 57.1248 12.7166 57.0685 12.3145C57.0121 11.9108 57 11.346 57 10.5H55ZM59.5 15C60.346 15 60.9108 15.0121 61.3145 15.0685C61.7166 15.1248 61.7909 15.2053 61.7928 15.2072C61.7947 15.2091 61.8752 15.2834 61.9315 15.6855C61.9879 16.0892 62 16.654 62 17.5H64C64 16.6795 63.9912 15.9736 63.9122 15.4085C63.8329 14.8419 63.6635 14.2495 63.207 13.793C62.7505 13.3365 62.1581 13.1671 61.5915 13.0878C61.0264 13.0088 60.3205 13 59.5 13V15ZM62 17.5C62 18.3205 62.0088 19.0264 62.0878 19.5915C62.1671 20.1581 62.3365 20.7505 62.793 21.207C63.2495 21.6635 63.8419 21.8329 64.4085 21.9122C64.9736 21.9912 65.6795 22 66.5 22V20C65.654 20 65.0891 19.9879 64.6855 19.9315C64.2834 19.8752 64.2091 19.7947 64.2072 19.7928C64.2054 19.7909 64.1248 19.7166 64.0685 19.3145C64.0121 18.9108 64 18.346 64 17.5H62ZM66.5 22H70V20H66.5V22ZM69 21V28H71V21H69ZM69 28V35H71V28H69ZM70 36H73.5V34H70V36ZM73.5 36H77V34H73.5V36ZM76 35V49H78V35H76ZM76 49V63H78V49H76ZM77 62H73.5V64H77V62ZM73.5 62H70V64H73.5V62ZM69 63V70H71V63H69ZM69 70V77H71V70H69ZM70 76H66.5V78H70V76ZM66.5 76C65.6795 76 64.9736 76.0088 64.4085 76.0878C63.8419 76.1671 63.2495 76.3365 62.793 76.793C62.3365 77.2495 62.1671 77.8419 62.0878 78.4085C62.0088 78.9736 62 79.6795 62 80.5H64C64 79.654 64.0121 79.0891 64.0685 78.6855C64.1248 78.2834 64.2054 78.2091 64.2072 78.2072C64.2091 78.2054 64.2834 78.1248 64.6855 78.0685C65.0891 78.0121 65.654 78 66.5 78V76ZM62 80.5V84H64V80.5H62ZM63 83H42V85H63V83ZM42 83H21V85H42V83ZM22 84V80.5H20V84H22ZM22 80.5C22 79.6795 21.9912 78.9736 21.9122 78.4085C21.8329 77.8419 21.6635 77.2495 21.207 76.793C20.7505 76.3365 20.1581 76.1671 19.5915 76.0878C19.0264 76.0088 18.3205 76 17.5 76V78C18.346 78 18.9108 78.0121 19.3145 78.0685C19.7166 78.1248 19.7909 78.2054 19.7928 78.2072C19.7947 78.2091 19.8752 78.2834 19.9315 78.6855C19.9879 79.0891 20 79.654 20 80.5H22ZM17.5 76H14V78H17.5V76ZM15 77V70H13V77H15ZM15 70V63H13V70H15ZM14 62H10.5V64H14V62ZM10.5 62H7V64H10.5V62ZM8 63V49H6V63H8ZM8 49V35H6V49H8ZM7 36H10.5V34H7V36ZM10.5 36H14V34H10.5V36ZM15 35V28H13V35H15ZM15 28V21H13V28H15ZM14 22H17.5V20H14V22ZM17.5 22C18.3205 22 19.0264 21.9912 19.5915 21.9122C20.1581 21.8329 20.7505 21.6635 21.207 21.207C21.6635 20.7505 21.8329 20.1581 21.9122 19.5915C21.9912 19.0264 22 18.3205 22 17.5H20C20 18.346 19.9879 18.9108 19.9315 19.3145C19.8752 19.7166 19.7947 19.7909 19.7928 19.7928C19.7909 19.7947 19.7166 19.8752 19.3145 19.9315C18.9108 19.9879 18.346 20 17.5 20V22ZM22 17.5C22 16.654 22.0121 16.0892 22.0685 15.6855C22.1248 15.2834 22.2053 15.2091 22.2072 15.2072C22.2091 15.2053 22.2834 15.1248 22.6855 15.0685C23.0892 15.0121 23.654 15 24.5 15V13C23.6795 13 22.9736 13.0088 22.4085 13.0878C21.8419 13.1671 21.2495 13.3365 20.793 13.793C20.3365 14.2495 20.1671 14.8419 20.0878 15.4085C20.0088 15.9736 20 16.6795 20 17.5H22ZM24.5 15C25.3205 15 26.0264 14.9912 26.5915 14.9122C27.1581 14.8329 27.7505 14.6635 28.207 14.207C28.6635 13.7505 28.8329 13.1581 28.9122 12.5915C28.9912 12.0264 29 11.3205 29 10.5H27C27 11.346 26.9879 11.9108 26.9315 12.3145C26.8752 12.7166 26.7947 12.7909 26.7928 12.7928C26.7909 12.7947 26.7166 12.8752 26.3145 12.9315C25.9108 12.9879 25.346 13 24.5 13V15ZM29 10.5V7H27V10.5H29ZM28 8H42V6H28V8ZM42 8H56V6H42V8ZM55 7V10.5H57V7H55ZM24 35.5C24 37.7098 23.9912 39.3923 23.9496 40.6785C23.9076 41.9775 23.8332 42.8134 23.7189 43.3564C23.6019 43.9124 23.4804 43.9699 23.5075 43.9501C23.5165 43.9436 23.4567 44 23 44V46C23.4733 46 24.1285 45.973 24.6868 45.5654C25.2633 45.1445 25.5256 44.4832 25.6761 43.7683C25.8293 43.0405 25.9062 42.0534 25.9485 40.7431C25.9913 39.42 26 37.7067 26 35.5H24ZM23 44C22.5428 44 22.0662 44.0444 21.6287 44.2218C21.1558 44.4135 20.7837 44.7381 20.5246 45.1915C20.2839 45.6129 20.1622 46.1075 20.0935 46.6267C20.0239 47.1526 20 47.7768 20 48.5H22C22 47.8067 22.0238 47.2851 22.0762 46.8892C22.1295 46.4866 22.2043 46.2833 22.2611 46.1837C22.2997 46.1163 22.3264 46.097 22.3802 46.0752C22.4696 46.039 22.6477 46 23 46V44ZM20 48.5C20 49.2232 20.0239 49.8474 20.0935 50.3733C20.1622 50.8925 20.2839 51.3871 20.5246 51.8085C20.7837 52.2619 21.1558 52.5865 21.6287 52.7782C22.0662 52.9556 22.5428 53 23 53V51C22.6477 51 22.4696 50.961 22.3802 50.9248C22.3264 50.903 22.2997 50.8837 22.2611 50.8163C22.2043 50.7167 22.1295 50.5134 22.0762 50.1108C22.0238 49.7149 22 49.1933 22 48.5H20ZM23 53C23.4567 53 23.5165 53.0564 23.5075 53.0499C23.4804 53.0301 23.6019 53.0876 23.7189 53.6436C23.8332 54.1866 23.9076 55.0225 23.9496 56.3215C23.9912 57.6077 24 59.2902 24 61.5H26C26 59.2933 25.9913 57.58 25.9485 56.2569C25.9062 54.9466 25.8293 53.9595 25.6761 53.2317C25.5256 52.5168 25.2633 51.8555 24.6868 51.4346C24.1285 51.027 23.4733 51 23 51V53ZM24 61.5V71H26V61.5H24ZM25 72H36.5V70H25V72ZM36.5 72C41.8642 72 44.8544 71.9751 46.4837 71.6917C47.2895 71.5516 48.0201 71.3123 48.4921 70.7507C48.977 70.1736 49 69.4742 49 69H47C47 69.4678 46.9396 69.4894 46.961 69.4639C46.9694 69.4539 46.8561 69.5969 46.141 69.7213C44.7286 69.9669 41.9688 70 36.5 70V72ZM49 69C49 68.5921 49.0455 68.4493 49.07 68.4012C49.0757 68.3902 49.0797 68.3843 49.0936 68.3731C49.1126 68.3578 49.1641 68.3225 49.2793 68.2806C49.5281 68.1901 49.9495 68.1116 50.6691 68.063C51.375 68.0153 52.2939 68 53.5 68V66C52.2896 66 51.3127 66.0149 50.5343 66.0676C49.7696 66.1192 49.1181 66.2111 48.596 66.4009C48.0366 66.6043 47.5701 66.9417 47.2894 67.4905C47.0379 67.9822 47 68.5289 47 69H49ZM53.5 68H59V66H53.5V68ZM60 67V62H58V67H60ZM60 62C60 60.8291 60.0109 59.9697 60.0597 59.3254C60.1101 58.6608 60.1947 58.3468 60.2695 58.1972C60.3048 58.1265 60.3156 58.1121 60.4151 58.082C60.5978 58.0266 60.9038 58 61.5 58V56C60.9297 56 60.34 56.015 59.8352 56.1679C59.2472 56.3461 58.7788 56.7066 58.4807 57.3026C58.2222 57.8196 58.1193 58.4639 58.0654 59.1743C58.01 59.9051 58 60.8374 58 62H60ZM61.5 58C62.053 58 62.7379 58.0091 63.3057 57.7811C64.0229 57.4931 64.4203 56.9156 64.636 56.1821C64.8334 55.5107 64.915 54.5963 64.9563 53.4066C64.9983 52.1947 65 50.5936 65 48.5H63C63 50.6064 62.9981 52.1678 62.9575 53.3372C62.9161 54.5287 62.8359 55.2143 62.7172 55.6179C62.6616 55.807 62.612 55.8806 62.5949 55.9021C62.5875 55.9115 62.586 55.9149 62.5604 55.9251C62.4279 55.9784 62.1825 56 61.5 56V58ZM65 48.5C65 46.4064 64.9983 44.8053 64.9563 43.5934C64.915 42.4037 64.8334 41.4893 64.636 40.8179C64.4203 40.0844 64.0229 39.5069 63.3057 39.2189C62.7379 38.9909 62.053 39 61.5 39V41C62.1825 41 62.4279 41.0216 62.5604 41.0749C62.586 41.0851 62.5875 41.0885 62.5949 41.0979C62.612 41.1194 62.6616 41.193 62.7172 41.3821C62.8359 41.7857 62.9161 42.4713 62.9575 43.6628C62.9981 44.8322 63 46.3936 63 48.5H65ZM61.5 39C60.9038 39 60.5978 38.9734 60.4151 38.918C60.3156 38.8879 60.3048 38.8735 60.2695 38.8028C60.1947 38.6532 60.1101 38.3392 60.0597 37.6746C60.0109 37.0303 60 36.1709 60 35H58C58 36.1626 58.01 37.0949 58.0654 37.8257C58.1193 38.5361 58.2222 39.1804 58.4807 39.6974C58.7788 40.2934 59.2472 40.6539 59.8352 40.8321C60.34 40.985 60.9297 41 61.5 41V39ZM60 35V30H58V35H60ZM59 29H53.5V31H59V29ZM53.5 29C52.2939 29 51.375 28.9847 50.6691 28.937C49.9495 28.8884 49.5281 28.8099 49.2793 28.7194C49.1641 28.6775 49.1126 28.6422 49.0936 28.6269C49.0797 28.6157 49.0757 28.6098 49.07 28.5988C49.0455 28.5507 49 28.4079 49 28H47C47 28.4711 47.0379 29.0178 47.2894 29.5095C47.5701 30.0582 48.0366 30.3957 48.596 30.5991C49.1181 30.7889 49.7696 30.8808 50.5343 30.9324C51.3127 30.9851 52.2896 31 53.5 31V29ZM49 28C49 27.5258 48.977 26.8264 48.4921 26.2493C48.0201 25.6877 47.2895 25.4484 46.4837 25.3083C44.8544 25.0249 41.8642 25 36.5 25V27C41.9688 27 44.7286 27.0331 46.141 27.2787C46.8561 27.4031 46.9694 27.5461 46.961 27.5361C46.9396 27.5106 47 27.5322 47 28H49ZM36.5 25H25V27H36.5V25ZM24 26V35.5H26V26H24ZM47 37.5C47 38.5116 47.0765 39.6153 47.91 40.3099C48.3142 40.6467 48.8026 40.8066 49.2916 40.8915C49.7791 40.9762 50.3533 41 51 41V39C50.3802 39 49.9461 38.9752 49.6337 38.921C49.3227 38.867 49.2194 38.7976 49.1903 38.7734C49.157 38.7457 49 38.5994 49 37.5H47ZM51 41H54V39H51V41ZM53 40V48.5H55V40H53ZM53 48.5V57H55V48.5H53ZM54 56H51V58H54V56ZM51 56C50.3533 56 49.7791 56.0238 49.2916 56.1085C48.8026 56.1934 48.3142 56.3533 47.91 56.6901C47.0765 57.3847 47 58.4884 47 59.5H49C49 58.4006 49.157 58.2543 49.1903 58.2266C49.2194 58.2024 49.3227 58.133 49.6337 58.079C49.9461 58.0248 50.3802 58 51 58V56ZM47 59.5C47 60.1382 46.9757 60.4207 46.9203 60.5814C46.9066 60.621 46.916 60.6531 46.7411 60.7204C46.4811 60.8204 46.0044 60.9039 45.1085 60.9496C44.2357 60.9941 43.0729 61 41.5 61V63C43.0606 63 44.277 62.9946 45.2105 62.947C46.1209 62.9005 46.8775 62.8108 47.4592 62.5871C48.1259 62.3306 48.5852 61.8884 48.8111 61.2333C48.9952 60.6993 49 60.0668 49 59.5H47ZM41.5 61H35V63H41.5V61ZM36 62V57H34V62H36ZM36 57V52H34V57H36ZM35 53H39.5V51H35V53ZM39.5 53C40.601 53 41.4938 52.9997 42.18 52.9387C42.8434 52.8797 43.518 52.7527 44.0425 52.3447C44.6192 51.8961 44.8269 51.265 44.9157 50.6608C45.001 50.0803 45 49.3407 45 48.5H43C43 49.3998 42.996 49.968 42.9369 50.37C42.9091 50.5595 42.8752 50.6609 42.8507 50.7132C42.8316 50.754 42.8204 50.7615 42.8145 50.7661C42.7735 50.798 42.6028 50.8932 42.0029 50.9466C41.4257 50.9979 40.637 51 39.5 51V53ZM45 48.5C45 47.6593 45.001 46.9197 44.9157 46.3392C44.8269 45.735 44.6192 45.1039 44.0425 44.6553C43.518 44.2473 42.8434 44.1203 42.18 44.0613C41.4938 44.0003 40.601 44 39.5 44V46C40.637 46 41.4257 46.0021 42.0029 46.0534C42.6028 46.1068 42.7735 46.202 42.8145 46.2339C42.8204 46.2385 42.8316 46.246 42.8507 46.2868C42.8752 46.3391 42.9091 46.4405 42.9369 46.63C42.996 47.032 43 47.6002 43 48.5H45ZM39.5 44H35V46H39.5V44ZM36 45V40H34V45H36ZM36 40V35H34V40H36ZM35 36H41.5V34H35V36ZM41.5 36C43.0729 36 44.2357 36.0059 45.1085 36.0504C46.0044 36.0961 46.4811 36.1796 46.7411 36.2796C46.916 36.3469 46.9066 36.379 46.9203 36.4186C46.9757 36.5793 47 36.8618 47 37.5H49C49 36.9332 48.9952 36.3007 48.8111 35.7667C48.5852 35.1116 48.1259 34.6694 47.4592 34.4129C46.8775 34.1892 46.1209 34.0995 45.2105 34.053C44.277 34.0054 43.0606 34 41.5 34V36Z" fill="black" mask="url(#path-1-inside-1_5_15)"/>
</svg>
