<?xml version="1.0" encoding="UTF-8" standalone="no"?>
<svg
   width="32"
   height="32"
   preserveAspectRatio="xMidYMid meet"
   viewBox="0 0 32 32"
   style="-ms-transform: rotate(360deg); -webkit-transform: rotate(360deg); transform: rotate(360deg);"
   version="1.1"
   id="svg4"
   sodipodi:docname="globe.svg"
   inkscape:version="1.2.1 (9c6d41e410, 2022-07-14, custom)"
   xmlns:inkscape="http://www.inkscape.org/namespaces/inkscape"
   xmlns:sodipodi="http://sodipodi.sourceforge.net/DTD/sodipodi-0.dtd"
   xmlns="http://www.w3.org/2000/svg"
   xmlns:svg="http://www.w3.org/2000/svg">
  <defs
     id="defs8" />
  <sodipodi:namedview
     id="namedview6"
     pagecolor="#ffffff"
     bordercolor="#000000"
     borderopacity="0.25"
     inkscape:showpageshadow="2"
     inkscape:pageopacity="0.0"
     inkscape:pagecheckerboard="0"
     inkscape:deskcolor="#d1d1d1"
     showgrid="false"
     inkscape:zoom="26.0625"
     inkscape:cx="16.019185"
     inkscape:cy="16"
     inkscape:window-width="1920"
     inkscape:window-height="1015"
     inkscape:window-x="0"
     inkscape:window-y="0"
     inkscape:window-maximized="1"
     inkscape:current-layer="svg4" />
  <path
     fill="#000000"
     d="M 16,0 C 7.1633411,0 0,7.1633411 0,16 0,24.836659 7.1633411,32 16,32 24.836659,32 32,24.836659 32,16 32,7.1633411 24.836659,0 16,0 Z m 3.476538,24.002202 c -0.08807,0.06935 -0.201459,0.143112 -0.115591,0.226778 0.08587,0.08587 -0.09908,0.143113 -0.09908,0.187148 0,0.04403 0.11449,0.270813 0.05724,0.369891 -0.05724,0.10128 -0.09908,0.245493 -0.143113,0.33026 -0.04404,0.08587 -0.143113,0.171735 -0.11449,0.300537 0.02862,0.1277 -0.113389,0.08477 -0.113389,0.213568 0,0.1266 0.1277,0.07045 0.09908,0.227879 -0.02752,0.158525 -0.09908,0.201459 -0.09908,0.313747 0,0.114491 0.07045,0.271915 0.07045,0.314848 0,0.04293 -0.06935,0.187148 -0.169533,0.299436 -0.10128,0.11449 -0.170635,0.187148 -0.158525,0.256502 0.01541,0.07156 0.11449,0.158525 0.09908,0.20256 -0.01321,0.04073 -0.140911,0.184945 -0.1266,0.286225 0.01541,0.09908 0.143113,0.05725 0.170634,0.1266 0.02862,0.07156 -0.170634,0.129902 -0.08587,0.201458 0.08587,0.07046 0.201459,0.05504 0.171735,0.228981 -0.02202,0.123297 0.07046,0.179441 0.138709,0.217971 -0.979771,0.244393 -2.001376,0.388606 -3.057107,0.388606 C 8.9984863,28.696298 3.3014999,23.001514 3.3014999,16 c 0,-2.282097 0.6131829,-4.419981 1.671116,-6.2716389 0.088069,-0.046236 0.1508188,-0.077061 0.1871474,-0.068254 0.072657,0.015412 0.088069,0.1155911 0.2025595,0.1431127 0.1144902,0.029723 0.2146691,-0.084767 0.2862254,-0.1277005 0.070456,-0.044035 0.1277006,-0.2146691 0.055043,-0.2003578 -0.070456,0.014311 -0.256502,0 -0.256502,0 0,0 0.2014586,-0.1144902 0.2014586,-0.1871474 0,-0.072657 0.027522,-0.1849456 0.1431127,-0.2278794 0.1122885,-0.044035 0.1122885,-0.015412 0.040732,0.1563231 -0.071556,0.1717352 0.1431127,0.099078 0.2289803,0.028623 0.085868,-0.070455 0.1431127,-0.014311 0.2994358,-0.1144902 0.157424,-0.1012797 0.157424,-0.1585248 0.2421908,-0.1585248 0.088069,0 0.2443924,0.157424 0.33026,0.099078 0.084767,-0.055043 0.3302601,0.072657 0.4733728,0.072657 0.140911,0 0.5988716,0.1871474 0.6858401,0.1871474 0.085868,0 0.3434705,0.099078 0.3577818,0.2840237 0.014311,0.1871474 0.099078,0.1717352 0.1849456,0.1717352 0.085868,0 0.2862254,0.071556 0.2862254,0.1431127 0,0.071556 -0.055043,0.3577812 0.088069,0.4293382 0.1409109,0.07045 0.2708132,0.187147 0.3280583,0.157424 0.057245,-0.02972 0,-0.257603 -0.070455,-0.286226 -0.071556,-0.02972 -0.029723,-0.129902 -0.057245,-0.187147 -0.028623,-0.055043 0.085868,-0.055043 0.1288014,0.04404 0.041833,0.09908 0.1563231,0.286225 0.2278794,0.286225 0.070455,0 0.2289804,0.170634 0.1849457,0.270813 -0.044035,0.09908 0.044035,0.242191 0.1717352,0.242191 0.1288019,0 0.2862259,0.201459 0.3445719,0.21577 0.05724,0.01431 0.128801,0.08587 0.128801,0.128801 0,0.04403 0.07156,0.286226 0.07156,0.385304 0,0.09908 -0.04404,0.499793 -0.05835,0.657217 -0.01431,0.157424 0.11449,0.429339 0.257603,0.572451 0.143112,0.143113 0.270813,0.415027 0.35668,0.473373 0.08807,0.05504 0.143113,0.213568 0.271915,0.198156 0.128801,-0.01321 0.214669,0.08807 0.33026,0.286225 0.113389,0.201459 0.227879,0.528417 0.313747,0.55814 0.08587,0.02862 0.22898,0.128801 0.156323,0.200358 -0.07046,0.07046 -0.184946,0.22898 -0.05504,0.22898 0.1277,0 0.170634,-0.07156 0.270813,0.05835 0.09908,0.127701 0.22898,0.198156 0.213568,0.286225 -0.01431,0.08477 0.11449,0.11339 0.171735,0.127701 0.05724,0.01431 0.187148,0.271914 0.314848,0.157424 0.128802,-0.11449 -0.170634,-0.286225 -0.257603,-0.358883 -0.08587,-0.07045 0,-0.227879 -0.200357,-0.385303 -0.200358,-0.157424 -0.171736,-0.271914 -0.314848,-0.385303 -0.143113,-0.115592 -0.256502,-0.21577 -0.114491,-0.315949 0.143113,-0.09908 0.157424,0.09908 0.214669,0.22898 0.05725,0.128801 0.356681,0.387505 0.484382,0.500894 0.129902,0.114491 0.359983,0.515206 0.429338,0.515206 0.06935,0 0.273015,0.228981 0.273015,0.228981 0,0 0.113389,0.187147 0.07046,0.24219 -0.04403,0.05835 0.05835,0.273015 0.158525,0.33026 0.09908,0.05724 0.501996,0.242191 0.559241,0.271914 0.05724,0.02972 0.170634,0.242191 0.33026,0.242191 0.154121,0 0.270813,0.01651 0.313747,0.05945 0.04404,0.04403 0.170634,0.214669 0.257603,0.115591 0.08587,-0.10128 0.09908,-0.143113 0.22898,-0.143113 0.128801,0 0.184946,0.09908 0.256502,0.170635 0.07156,0.07156 0.271914,0.258703 0.372093,0.244392 0.09908,-0.01431 0.22898,0.11449 0.300537,0.07046 0.07156,-0.04403 0.184945,0.02752 0.24219,0.05725 0.05835,0.02862 0.256502,0.129902 0.242191,0.299436 -0.01321,0.172836 0.11449,0.214669 0.201459,0.257602 0.08587,0.04404 0.200358,0.143113 0.273015,0.214669 0.07156,0.06825 0.227879,0.08367 0.271914,0.1266 0.04404,0.04404 0.07156,0.128802 0.200358,0.05725 0.126599,-0.07046 0.09908,-0.198156 0.09908,-0.198156 0,0 0.143112,-0.02972 0.214669,0.02752 0.07045,0.05504 0.11449,0.242191 0.158525,0.270813 0.04073,0.02862 0.125499,0.242191 0.06825,0.398514 -0.05504,0.159626 -0.04183,0.314848 -0.09908,0.314848 -0.05835,0 -0.128801,0.187147 -0.21577,0.231182 -0.08366,0.04183 -0.313747,0.242191 -0.299435,0.313747 0.01431,0.07046 0.143112,0.286225 0.11449,0.385303 -0.02752,0.10128 -0.213568,0.21577 -0.169534,0.374295 0.04183,0.157424 0.343471,0.200358 0.35558,0.341269 0.01541,0.145314 0.231182,0.460162 0.258704,0.602174 0.02752,0.143113 0.270813,0.299436 0.270813,0.498693 0,0.202559 0.343471,0.33026 0.415027,0.34347 0.06936,0.01431 0.200358,0.143113 0.299436,0.187148 0.09908,0.04403 0.187147,0.1277 0.256502,0.24219 0.06935,0.114491 0.05835,0.288428 0.05835,0.330261 0,0.04403 -0.04404,0.484381 -0.08587,0.741984 -0.04403,0.258704 0.05504,0.459061 -0.02972,0.531719 z M 10.238062,10.701527 c 0.04404,0.01431 0.128802,0.09908 0.171736,0.09908 0.04403,0 0.257603,0.172837 0.314848,0.231183 0.05835,0.05504 0.05835,0.213568 -0.01431,0.227879 -0.07266,0.01431 -0.11449,-0.157424 -0.128801,-0.22898 -0.01431,-0.07156 -0.157424,-0.07156 -0.22898,-0.11449 -0.07156,-0.04404 -0.231182,-0.2532 -0.114491,-0.21467 z m 18.432916,5.749828 c -0.158524,0.200358 -0.143112,0.299436 -0.214669,0.314848 -0.07046,0.01431 0.07156,0.07156 0.09908,0.213569 0.02422,0.123297 -0.07156,0.246594 0.06936,0.359983 -0.535021,5.086005 -4.084216,9.284712 -8.824549,10.774185 -0.0077,-0.01101 -0.02202,-0.02752 -0.02202,-0.03743 -0.03082,-0.08587 -0.03082,-0.256502 0.06935,-0.313747 0.09908,-0.05835 0.34347,-0.256502 0.399615,-0.299436 0.05725,-0.04403 0.143112,-0.24219 0.09908,-0.271914 -0.04073,-0.02862 -0.2532,0 -0.286226,-0.04403 -0.02752,-0.04183 -0.02752,-0.09908 0.115591,-0.198156 0.143113,-0.10128 0.214669,-0.245494 0.271914,-0.286226 0.05724,-0.04404 0.170635,-0.129902 0.214669,-0.231182 0.04183,-0.09908 -0.04403,-0.04404 -0.129902,-0.04404 -0.08587,0 -0.128801,-0.15302 -0.128801,-0.226778 0,-0.07376 0.214669,0.02862 0.374294,0.05725 0.156324,0.02642 0.08367,-0.07156 0.06936,-0.156323 -0.01431,-0.08587 0.02862,-0.231182 0.115591,-0.187148 0.08367,0.04404 0.528416,-0.01431 0.58346,-0.02862 0.05835,-0.01431 0.214669,-0.270813 0.271914,-0.343471 0.05835,-0.07156 0.07045,-0.143112 0,-0.184945 -0.07156,-0.04403 -0.157424,-0.20256 -0.184946,-0.242191 a 0.79812853,0.79812853 0 0 1 -0.01431,-0.374295 c 0.02752,-0.07045 0,0.413926 0.198156,0.473373 0.202559,0.05504 0.315949,0.08477 0.501995,-0.08807 0.187148,-0.169534 0.328059,-0.286226 0.343471,-0.398514 0.01431,-0.11449 0.05724,-0.231182 0.128801,-0.270813 0.07046,-0.04403 0.113389,0.113389 0.198156,-0.07156 0.08807,-0.187147 0.172836,-0.171735 0.258704,-0.328058 0.08477,-0.158525 -0.143113,-0.357782 0.02642,-0.473373 0.171735,-0.113389 0.473372,-0.256502 0.473372,-0.256502 0,0 0.08477,-0.04403 0.256502,-0.08807 0.170635,-0.04073 0.356681,-0.01431 0.413926,-0.09908 0.05504,-0.08587 0.11339,-0.270814 0.198156,-0.370992 0.08807,-0.10128 0.187148,-0.257603 0.143113,-0.330261 -0.04183,-0.07046 0.115591,-0.385303 0.10128,-0.471171 -0.01431,-0.08587 -0.143113,-0.286225 0.07156,-0.45796 0.214669,-0.171735 0.442549,-0.43154 0.457961,-0.500895 0.01321,-0.07156 0.187147,-0.372093 0.169533,-0.517407 -0.01321,-0.140911 -0.169533,-0.312646 -0.269712,-0.356681 -0.10128,-0.03963 -0.314848,-0.05504 -0.400716,-0.168433 -0.08587,-0.113389 -0.33026,-0.22898 -0.415026,-0.200357 -0.08367,0.02862 -0.22788,0.05504 -0.341269,-0.01651 -0.115591,-0.06935 -0.300537,-0.157424 -0.372093,-0.213569 -0.07266,-0.05504 -0.257603,-0.09908 -0.343471,-0.09908 -0.08587,0 -0.07156,-0.05835 -0.200357,0.11339 -0.128802,0.171735 0,0.22898 -0.228981,0.198156 -0.231182,-0.02532 0.02752,-0.04073 0.158525,-0.212468 0.1266,-0.170634 -0.01541,-0.271914 -0.158525,-0.227879 -0.143112,0.04403 -0.04403,0.128801 -0.271914,0.171735 -0.227879,0.04183 -0.227879,-0.10128 -0.08477,-0.128801 0.143113,-0.02972 0.399615,-0.158525 0.399615,-0.214669 0,-0.05835 -0.02972,-0.21577 -0.143113,-0.21577 -0.113389,0 -0.08807,-0.143113 -0.257602,-0.328059 -0.171736,-0.187147 -0.385304,-0.301637 -0.559241,-0.275216 -0.169533,0.02972 -0.299436,0.07266 -0.385303,-0.08256 -0.08587,-0.158525 -0.187148,-0.187148 -0.244393,-0.271914 -0.05504,-0.08587 -0.200358,0 -0.24219,-0.04403 -0.04183,-0.04404 -0.04403,-0.04183 -0.04403,-0.04183 0,0 -0.187148,0.04403 -0.08477,-0.08587 0.09908,-0.128801 0.140911,-0.372093 0.09908,-0.357781 -0.04404,0.01321 -0.115591,0.214669 -0.187147,0.200357 -0.06936,-0.01431 -0.01431,-0.04403 -0.157424,-0.128801 -0.143113,-0.08587 -0.370992,-0.01431 -0.370992,0.05724 0,0.07156 -0.07156,0.128801 -0.07156,0.128801 0,0 -0.04403,-0.04183 -0.08587,-0.128801 -0.04403,-0.08587 -0.242191,-0.09908 -0.343471,-0.01431 -0.09908,0.08587 -0.156323,-0.21577 -0.227879,-0.21577 -0.07156,0 -0.213568,0.07156 -0.286226,0.202559 -0.07046,0.127701 -0.04183,0.313747 -0.101279,0.299436 -0.05504,-0.01431 -0.06935,-0.256502 -0.05504,-0.34347 0.01321,-0.08807 0.170635,-0.228981 0.05504,-0.257603 -0.11339,-0.02862 -0.286226,0.143112 -0.35558,0.157424 a 0.67813403,0.67813403 0 0 0 -0.300537,0.231182 c -0.08477,0.113389 -0.127701,0.184945 -0.214669,0.227879 -0.08477,0.04404 -0.212468,0 -0.183845,-0.04403 0.02752,-0.04183 -0.244392,-0.198156 -0.286225,-0.143113 -0.04404,0.05835 -0.171736,0.10128 -0.300537,0.159626 -0.128801,0.05725 -0.244393,-0.07156 -0.271914,-0.128802 -0.02752,-0.05724 -0.08807,-0.07045 -0.09908,-0.257603 -0.01541,-0.183845 0.02862,-0.385303 0.07045,-0.498692 0.04183,-0.114491 -0.214669,-0.343471 -0.314848,-0.330261 -0.09908,0.01651 -0.200357,0.115591 -0.299435,0.09908 -0.10128,-0.01101 -0.05725,-0.04073 -0.21467,-0.04073 -0.158524,0 -0.02972,-0.02752 0,-0.157424 0.02642,-0.1277 -0.05835,-0.300536 0.09908,-0.415026 0.157424,-0.114491 0.10128,-0.385304 0,-0.399615 -0.09908,-0.01541 -0.286225,0.04404 -0.413925,0.02862 a 0.17173524,0.17173524 0 0 0 -0.187148,0.22788 c 0.04404,0.128801 -0.07046,0.214669 -0.113389,0.201459 -0.04183,-0.01431 -0.09908,-0.08587 -0.256502,0.02862 -0.156323,0.112289 -0.213568,0.06935 -0.370992,-0.05835 -0.157424,-0.129902 -0.33026,-0.257603 -0.357782,-0.45796 -0.02862,-0.198157 -0.04404,-0.399615 0.01431,-0.514105 0.05504,-0.114491 0.05504,-0.313747 -0.02862,-0.343471 -0.08587,-0.02642 0.09908,-0.169533 0.198156,-0.198156 a 0.63740195,0.63740195 0 0 0 0.286225,-0.214669 c 0.02972,-0.05724 0.172836,-0.04404 0.33026,-0.04404 0.156323,0 0.184946,0 0.341269,0.08587 0.158525,0.08587 0.187147,-0.04403 0.187147,-0.08587 0,-0.04403 0.05725,-0.128801 0.228981,-0.11449 0.171735,0.01541 0.413926,-0.05504 0.45796,-0.01321 0.04404,0.04183 0.127701,0.214669 0.213568,0.157424 0.08807,-0.05504 0.114491,-0.156323 0.143113,0.01651 0.02862,0.170634 0.09908,0.429338 0.231182,0.473373 0.1266,0.04183 0.05504,0.212467 0.183845,0.226778 0.1266,0.01541 0.187147,-0.269712 0.143113,-0.369891 -0.04404,-0.09908 -0.128802,-0.399615 -0.200358,-0.471171 -0.07046,-0.07156 -0.07046,-0.257603 0.07046,-0.314848 0.143113,-0.05724 0.484382,-0.343471 0.58346,-0.429338 0.102381,-0.08587 0.374295,-0.157424 0.288427,-0.271914 -0.08587,-0.114491 -0.11449,-0.184946 -0.11449,-0.271914 0,-0.08697 0.08587,-0.05725 0.128801,0 0.04293,0.05724 0.213568,-0.08587 0.170635,-0.157424 -0.04183,-0.07046 -0.02862,-0.170635 0.07156,-0.157424 0.09908,0.01431 0.127701,-0.07156 0.08587,-0.128802 -0.04404,-0.05724 0.09908,-0.128801 0.200357,-0.09908 0.10128,0.02752 0.357782,-0.01541 0.400716,-0.07266 0.04073,-0.05724 -0.08807,-0.11449 -0.08807,-0.22898 0,-0.115591 0.171735,-0.21577 0.273015,-0.231182 0.09908,-0.01321 0.227879,0 0.24219,-0.04183 0.01431,-0.04403 0.158525,-0.157424 0.171736,-0.05724 0.01541,0.09908 0,0.271914 0.11449,0.271914 0.11449,0 0.255401,-0.128802 0.299436,-0.143113 0.04183,-0.01321 0.314848,-0.07046 0.372093,-0.08477 0.05724,-0.01431 0.399614,-0.04403 0.357781,-0.143113 -0.04403,-0.09908 -0.08587,-0.198156 -0.129902,-0.24219 -0.04404,-0.04404 -0.08477,0.01431 -0.143113,0.08587 -0.05504,0.07156 -0.157424,0.07156 -0.184945,0.01431 -0.02862,-0.05504 0.01321,-0.226779 -0.08587,-0.170635 -0.102381,0.05724 -0.115591,0.11449 -0.173937,0.08587 -0.05724,-0.02862 -0.113389,-0.128802 -0.113389,-0.128802 0,0 0.140911,-0.07045 0.04073,-0.200357 -0.09908,-0.128802 -0.242191,-0.09908 -0.385304,-0.02752 -0.143112,0.06935 -0.129902,0.05504 -0.300536,0.09908 -0.170635,0.04403 -0.257603,0.08477 -0.257603,0.08477 0,0 0.231182,-0.143113 0.33026,-0.228981 0.09908,-0.08807 0.22898,-0.129902 0.313747,-0.215769 0.08587,-0.08587 0.313747,0.04403 0.313747,0.04403 0,0 0.115591,-0.115591 0.115591,-0.04403 0,0.07156 -0.02972,0.257602 0.05504,0.257602 0.08807,0 0.33026,-0.11449 0.231182,-0.143112 -0.10128,-0.02972 0.143112,0 0.24219,-0.07266 0.10128,-0.07156 0.213569,-0.07156 0.271914,-0.09908 0.05725,-0.02862 0.10128,-0.157424 0.200358,-0.157424 0.10128,0 0.143113,0.127701 0,0.213569 -0.143112,0.08587 -0.157424,0.300536 -0.22898,0.357781 -0.07046,0.05504 -0.02862,0.127701 0.08587,0.11339 0.11449,-0.01431 0.213568,0.01431 0.314847,-0.01431 0.10128,-0.02862 0.157424,0.02862 0.184946,0.07156 0.02862,0.04403 0.11449,-0.04404 0.11449,-0.04404 0,0 0.187148,-0.04183 0.242191,0.02972 0.05945,0.07046 0.102381,-0.04403 0.05945,-0.114491 -0.04404,-0.07046 -0.10128,-0.143112 -0.143113,-0.22898 -0.04404,-0.08587 -0.09908,-0.11449 -0.213568,-0.08587 -0.11449,0.02862 -0.143113,-0.02862 -0.214669,-0.07046 -0.07156,-0.04403 -0.129902,0.05724 -0.07156,-0.04403 0.05834,-0.09908 0.08587,-0.128801 0.128801,-0.214669 0.04183,-0.08587 0.22898,-0.242191 0.04183,-0.286225 -0.187147,-0.04404 -0.244393,-0.07046 -0.271914,-0.156323 -0.02752,-0.08477 -0.242191,-0.242191 -0.297234,-0.242191 -0.05945,0 -0.257603,0 -0.273015,-0.071556 -0.01431,-0.071556 -0.157424,-0.2289803 -0.228981,-0.3005366 -0.07045,-0.071556 -0.34347,-0.3853035 -0.385303,-0.4150269 -0.04404,-0.028622 -0.10128,-0.014311 -0.231182,0.157424 -0.1266,0.1728361 -0.242191,0.2014587 -0.341269,0.1585248 -0.10128,-0.044035 -0.115591,-0.028623 -0.213568,-0.1431127 -0.102381,-0.1144901 0.09908,-0.1288014 0.05504,-0.2003577 -0.04403,-0.070455 -0.270813,-0.099078 -0.413926,-0.1144902 -0.143112,-0.014311 -0.24219,-0.1717352 -0.45796,-0.1871474 -0.213568,-0.01321 -0.471171,0.029723 -0.542728,0.029723 -0.07045,0 -0.07045,0.099078 -0.09908,0.2576029 -0.02972,0.157424 0.09908,0.2003578 -0.02972,0.2289803 -0.127701,0.028623 -0.187148,0.044035 -0.05725,0.099078 0.128801,0.058346 0.300536,0.2862254 0.300536,0.2862254 0,0 0,0.1299023 -0.10238,0.2014587 -0.09908,0.071556 -0.200358,0.1431124 -0.256502,0.058346 -0.05835,-0.085868 -0.214669,-0.070455 -0.170635,0.015412 0.04073,0.085867 0.1266,0.1288014 0.1266,0.2146694 0,0.08367 0.128802,0.297234 0.04404,0.369891 -0.08807,0.07156 -0.187148,0.01541 -0.257603,0.02862 -0.07046,0.01321 -0.143113,-0.114491 -0.08477,-0.143113 0.05504,-0.02862 -0.01541,-0.242191 -0.01541,-0.242191 0,0 -0.171735,0.242191 -0.158525,0.113389 0.01541,-0.128801 -0.07045,-0.143112 -0.07045,-0.24219 0,-0.1012802 -0.08807,-0.1431131 -0.213568,-0.1155914 -0.129903,0.028622 -0.286226,-0.044035 -0.530618,-0.088069 A 1.5775423,1.5775423 0 0 1 16.245493,9.6634099 C 16.045136,9.5643319 15.973579,9.6347879 15.8734,9.6490989 15.77432,9.6634099 15.81616,9.4487411 15.686253,9.4212194 c -0.1266,-0.029723 -0.198156,0.027522 -0.226779,-0.1585248 -0.02972,-0.1838448 0.04183,-0.2278795 0.35558,-0.4293381 0.314848,-0.1981561 0.271914,-0.2862254 0.515206,-0.3137471 0.242191,-0.028622 0.358883,0.028623 0.358883,-0.044035 0,-0.072657 0.05724,-0.3566809 0.05724,-0.2135682 0,0.1431127 0.288427,0.1541214 0.158525,0.2531994 -0.127701,0.099078 -0.05725,0.1144902 0.04403,0.1144902 0.09908,0 0.286226,-0.099078 0.286226,-0.099078 0,0 0.227879,-0.1012798 0.286225,-0.015412 0.05724,0.085868 0.05724,0.1717353 0.157424,0.1717353 0.100179,0 0.313747,-0.1144902 0.127701,-0.2146691 C 17.622669,8.373194 17.50928,8.387505 17.393689,8.274116 17.278098,8.1607267 17.307819,8.201459 17.179019,8.230081 c -0.1277,0.028622 -0.1277,-0.044035 -0.171735,-0.044035 -0.04403,0 -0.11449,0.029723 -0.143112,-0.027522 -0.02752,-0.057245 0.01541,-0.071556 0.159625,-0.071556 0.140911,0 0.312646,0.044035 0.312646,0.044035 l 0.213569,-0.072657 c 0.04403,-0.014311 0.271914,-0.044035 0.22898,-0.1706343 -0.04404,-0.1299023 -0.187147,-0.1299023 -0.22898,-0.1728361 -0.04183,-0.042934 0.08587,-0.099078 0.157424,-0.1288015 0.07266,-0.028622 0.273015,0 0.273015,0 0,0 0.128801,0.014311 0.128801,-0.044035 0,-0.058346 -0.03082,-0.1277006 0.05504,-0.084767 0.08587,0.042934 0,0.1706344 0.129903,0.1431127 0.1277,-0.029723 0.157424,0 0.227879,0.041833 0.07156,0.044035 -0.01431,0.2146691 -0.08477,0.2421908 -0.07156,0.028622 -0.187147,0.085868 -0.02862,0.099078 C 18.567222,8 18.67951,8 18.67951,8 c 0,0 0.10128,-0.099078 0.143113,-0.1871474 0.04403,-0.084767 0.115591,-0.027522 0.171735,0 0.05504,0.028623 0.270813,0.072657 0.07046,0.1299023 -0.201459,0.058346 -0.242191,0.1299023 -0.286226,0.2014587 -0.04183,0.071556 -0.05835,0.1144901 -0.242191,0.071556 -0.187147,-0.044035 -0.286225,-0.028622 -0.33026,0.044035 -0.04403,0.069355 -0.01431,0.2994358 0.05835,0.2708133 0.06936,-0.028623 0.143113,-0.028623 0.22788,-0.057245 0.08587,-0.028623 0.429338,0.028623 0.514105,0.014311 0.08807,-0.014311 0.231182,0.1431127 0.275216,0.1144901 0.04183,-0.029723 0.127701,0.055043 0.212468,0.1133893 0.08587,0.057245 0.05725,-0.1288014 0.213568,-0.014311 0.158525,0.1144902 0.07156,0.1144902 0.158525,0.1144902 0.08477,0 0.271914,0.014311 0.271914,0.014311 0,0 0.01541,-0.1431127 0.158525,-0.1144902 0.143112,0.028622 0.270813,0.1871474 0.256502,0.070455 -0.01321,-0.1133893 0.01431,-0.1981561 -0.09908,-0.2862254 -0.114491,-0.084767 -0.299436,-0.1431127 -0.33026,-0.1849457 -0.02752,-0.044035 -0.05504,-0.1012797 -0.01321,-0.1299023 0.04404,-0.027522 0.244393,0.014311 0.357782,0.088069 0.11449,0.070456 0.214669,0.1431127 0.300537,0.084767 0.08477,-0.058346 0.187147,-0.088069 0.22898,-0.1299023 0.04183,-0.044035 0.143113,-0.1717353 0.143113,-0.1717353 0,0 -0.429339,-0.055043 -0.484382,-0.1288014 -0.05945,-0.072657 -0.259804,-0.1728361 -0.31705,-0.1728361 -0.05725,0 -0.213568,0.099078 -0.270813,-0.044035 C 20.011561,7.5673581 20.011561,7.3967237 19.95322,7.3824125 19.89818,7.3681015 19.296003,7.2833345 19.211236,7.2392997 19.125366,7.1952647 18.781898,7.096187 18.653096,7.0246307 18.524295,6.9530747 18.338248,6.8528955 18.223758,6.8528955 c -0.113389,0 -0.585661,0.057245 -0.671529,0.044035 -0.08587,-0.015412 -0.34347,0.027522 -0.443649,0.041833 -0.09908,0.014311 0.128801,0.2003578 -0.08477,0.2421907 -0.214669,0.044035 -0.187147,0.072657 -0.143112,-0.1431127 0.04183,-0.2135682 -0.143113,-0.2708133 -0.330261,-0.1849456 -0.184945,0.085868 -0.484381,0.1431127 -0.413926,0.2421907 0.07156,0.1012797 -0.01321,0.173937 0.128802,0.273015 0.143113,0.099078 0.201459,0.1288014 0.385303,0.1144901 0.187148,-0.014311 0.374295,0.027522 0.374295,0.027522 0,0 0,0.173937 -0.07156,0.2014587 -0.07156,0.028622 -0.187148,0.028622 -0.21577,0.1144901 -0.02752,0.085868 -0.170635,0.1288015 -0.170635,0.085868 0,-0.042934 0.07266,-0.1871473 -0.02752,-0.2576028 -0.09908,-0.070455 -0.128802,-0.084767 -0.242191,-0.01321 -0.115591,0.071556 -0.128801,0.099078 -0.187147,-0.014311 -0.05725,-0.1144902 -0.228981,-0.214669 -0.228981,-0.214669 0,0 -0.11449,-0.1431127 -0.200357,-0.2135682 -0.08477,-0.071556 -0.242191,-0.057245 -0.257603,0.014311 -0.01321,0.069355 0.02972,0.140911 0.08807,0.2708133 0.05504,0.1288014 0.113389,0.3709922 0.01321,0.3853034 -0.09908,0.015412 -0.11449,0.029723 -0.214669,0.058346 -0.09908,0.027522 -0.143112,-0.044035 -0.143112,-0.1585249 0,-0.1144901 -0.04403,-0.214669 -0.01431,-0.2576028 0.02862,-0.044035 -0.11449,0.029723 -0.257602,0 -0.143113,-0.027522 -0.256502,0.057245 -0.114491,0.1012797 0.143113,0.044035 0.172837,0.2135682 0.04404,0.256502 -0.129902,0.044035 -0.616485,0 -0.773909,0 -0.157424,0 -0.385304,0.044035 -0.429338,-0.044035 -0.04403,-0.084767 0.129902,-0.140911 0.22898,-0.140911 0.10128,0 0.400715,0.011009 0.515206,-0.1431127 0.11449,-0.1585248 -0.143113,-0.1871474 -0.256502,-0.1871474 -0.114491,0 -0.201459,-0.044035 -0.33026,-0.1706344 -0.128802,-0.1288014 0.08807,-0.214669 0.05834,-0.2719141 -0.02862,-0.057245 -0.171735,-0.015412 -0.299435,-0.015412 -0.128802,0 -0.33026,-0.099078 -0.33026,0.015412 0,0.1144902 0.158524,0.4425485 0.05835,0.3709922 -0.10128,-0.070456 -0.08807,-0.1717353 -0.158525,-0.2576029 -0.07156,-0.084767 -0.184946,-0.070456 -0.33026,-0.055043 -0.140911,0.01321 -0.385304,0.055043 -0.455759,0.041833 -0.07046,-0.014311 -0.01431,-0.014311 -0.171736,-0.085868 -0.156323,-0.071556 -0.22898,-0.057245 -0.34347,-0.1288015 -0.113389,-0.073758 -0.01321,-0.1012797 -0.213568,-0.115591 -0.198156,-0.014311 -0.184946,0.099078 -0.385304,0.071556 -0.200357,-0.028623 -0.257602,0.014311 -0.45796,0 -0.200358,-0.014311 -0.299436,-0.028623 -0.33026,0.071556 -0.02642,0.099078 -0.08477,0.2719141 -0.170635,0.2719141 -0.08587,0 -0.187147,0.099078 0.08477,0.1144902 0.271914,0.01321 0.115591,0.140911 0.357782,0.1277006 0.242191,-0.014311 0.45796,-0.014311 0.515206,-0.1288015 0.05724,-0.115591 0.09908,-0.115591 0.128801,-0.072657 0.02752,0.044035 0.242191,0.2994358 0.242191,0.2994358 0,0 0.143112,0.1144902 0.201458,0.1431127 0.05504,0.028623 -0.05724,0.157424 -0.171735,0.085868 -0.11449,-0.071556 -0.33026,-0.055043 -0.415027,-0.1277006 -0.08587,-0.071556 -0.473373,-0.071556 -0.572451,-0.057245 -0.09908,0.014311 -0.271914,-0.044035 -0.33026,-0.044035 -0.05504,0 -0.24219,0.1431127 -0.24219,0.1431127 0,0 -0.071557,-0.1144901 -0.1133897,-0.1717352 C 9.8890877,7.3504885 9.8186322,7.4649787 9.7613871,7.4792899 9.704142,7.4936012 9.5324068,7.3647998 9.3606715,7.4220449 9.1889363,7.4792899 9.2461814,7.536535 9.0028898,7.5211229 8.7595982,7.5057107 8.7023531,7.4660795 8.6175863,7.4792899 l -0.088069,0.014311 c 0,0 0.014311,0.057245 -0.084767,0.1144902 C 8.3456722,7.6653365 8.2719141,7.7368928 8.2003578,7.652126 8.1310032,7.5640567 8.0880694,7.5640567 8.0462364,7.5508463 8.0022017,7.536535 7.9141324,7.4649787 7.7302876,7.5068116 7.5431402,7.5508463 7.2569148,7.4517683 7.2018715,7.4517683 c -0.044035,0 -0.3445714,-0.017614 -0.5394248,-0.03743 C 8.9874776,4.8966561 12.306591,3.3026008 16,3.3026008 c 2.342645,0 4.532269,0.6495115 6.418054,1.7591854 a 0.5394248,0.5394248 0 0 1 -0.427136,0.02532 c -0.08587,-0.047337 -0.173937,-0.085868 -0.522912,-0.066052 -0.348975,0.018715 -0.732076,0.132104 -0.655016,0.247695 0.07926,0.1144902 -0.156323,0.1816431 -0.216871,0.124398 -0.06055,-0.057245 -0.341268,0.066052 -0.322554,0.181643 0.01761,0.1144902 -0.04403,0.2476951 -0.192651,0.2201734 -0.147516,-0.030824 -0.2532,0.066052 -0.260906,0.1596257 -0.0077,0.095776 -0.341268,0.1618275 -0.365488,0.1618275 -0.02642,0 -0.453557,-0.00881 -0.297234,0.1045823 0.106784,0.077061 0.16513,0.029723 0.297234,0.057245 0.132104,0.027522 0.235586,0.2377873 0.304941,0.2664098 0.06825,0.028623 0.16513,0 0.209164,-0.057245 0.04404,-0.057245 0.103482,-0.2576028 0.103482,-0.2576028 0,0 0,0.19045 0.105683,0.2289803 0.104582,0.03853 0.363286,-0.028622 0.434842,-0.018715 0.07156,0.00881 0.48218,0.066052 0.594469,0.1232971 0.113389,0.055043 0.390807,0.094674 0.47007,0.2179716 0.07706,0.124398 0.08807,0.5537361 0.132104,0.6010734 0.04403,0.047337 0.19045,-0.1541214 0.224577,-0.2003578 0.03523,-0.048438 0.220173,-0.019816 0.280721,0.046236 0.06165,0.066052 0.200358,0.2289803 0.192651,0.2972341 -0.01101,0.066052 -0.03633,0.1706343 -0.08807,0.132104 -0.05284,-0.036329 -0.13981,-0.026421 -0.105683,-0.1034815 0.03523,-0.077061 0.05284,-0.2388881 -0.01651,-0.2388881 h -0.132104 c 0,0 -0.132104,-0.03853 -0.220174,0.1045823 -0.08807,0.1431127 -0.01541,0.2862254 0.04404,0.2862254 0.05945,0 0.20366,0 0.20366,0.03743 0,0.03853 -0.149717,0.1541214 -0.14091,0.2201734 0.01101,0.066052 0.121095,0.2950323 0.158524,0.3434705 0.03523,0.047337 0.217972,0.094674 0.269713,0.1056832 0.05504,0.00881 -0.121096,0.018715 -0.07706,0.084767 0.04404,0.066052 0.112289,0.2289803 0.209165,0.2675106 0.09467,0.03853 0.365488,0.2091647 0.398514,0.2862254 0.03523,0.077061 0.244392,-0.057245 0.288427,-0.066052 0.04403,-0.011009 0.03303,0.1981561 0.156323,0.2091647 0.121095,0.00881 0.16513,-0.019816 0.269712,-0.1056832 0.104583,-0.085868 0.07926,-0.2003578 0.08807,-0.2862254 0.0088,-0.085868 0,-0.1519196 0.113389,-0.124398 0.11449,0.029723 0.173937,-0.018715 0.16513,-0.1133893 -0.0088,-0.095775 -0.104582,-0.2091647 0.07706,-0.2388881 0.183844,-0.028622 0.27962,-0.1519196 0.393009,-0.1519196 0.113389,0 0.429338,0.047337 0.462364,0 0.03303,-0.047337 0.182744,-0.2675107 0.27852,-0.2752168 0.07376,-0.00881 0.246594,-0.024219 0.423833,-0.047337 a 12.629145,12.629145 0 0 1 2.942618,7.6003847 c -0.129903,0.176139 -0.01321,0.335765 0.02202,0.449154 0.0022,0.03303 0.0066,0.06385 0.0066,0.09688 0,0.149718 -0.01761,0.297234 -0.02202,0.444751 l -0.0044,0.0066 z m -10.696023,-4.76235 c -0.07046,0.01431 -0.187147,-0.05724 -0.187147,-0.157424 0,-0.100179 -0.09908,0.187147 -0.04403,0.273015 0.05945,0.08587 -0.113389,0.187147 -0.169533,0.187147 -0.05614,0 -0.09908,-0.128801 -0.08587,-0.257602 0.01541,-0.128802 -0.08477,-0.242191 -0.242191,-0.228981 -0.158524,0.01541 -0.231182,0.143113 -0.286225,0.187148 -0.05835,0.04183 -0.05835,0.284023 -0.04403,0.341268 0.01431,0.05725 0.01431,0.259805 -0.1277,0.244393 -0.129903,-0.01431 -0.10128,-0.256502 -0.08807,-0.343471 0.01651,-0.08587 -0.04183,-0.300536 0.01651,-0.413926 0.05945,-0.11449 0.228981,-0.157424 0.344572,-0.171735 0.115591,-0.01431 0.356681,0.07156 0.399614,0.05724 0.04404,-0.01541 0.244393,-0.01541 0.343471,0 0.09908,0.01101 0.242191,0.269713 0.171735,0.284024 z m 0.256502,0.04404 c 0.04404,0.02752 0.341269,-0.04404 0.400716,0.02752 0.05724,0.07046 -0.05835,0.08477 -0.200358,0.143113 -0.143113,0.05504 -0.187147,0.04183 -0.242191,0.113389 -0.05504,0.07156 -0.244392,0.09908 -0.33026,0.184946 -0.08587,0.08807 -0.238888,0.138709 -0.270813,0.07266 -0.04403,-0.08587 0.01431,-0.04403 0.02752,-0.08587 0.01431,-0.04403 0.269712,-0.143113 0.269712,-0.143113 0,0 0.303839,-0.341269 0.346773,-0.313747 z m -1.144901,-0.501996 c -0.04073,0.01431 -0.198156,-0.02862 -0.33026,-0.02862 -0.1266,0 -0.09908,-0.08587 -0.156324,-0.07046 -0.05504,0.01431 -0.184945,0.04403 -0.271914,0.08587 -0.08587,0.04404 -0.22898,0.03303 -0.22898,-0.04403 0,-0.11449 0.05725,-0.08587 0.242191,-0.157424 0.187147,-0.07156 0.388606,-0.271914 0.473373,-0.187147 0.08587,0.08807 0.24219,0.187147 0.34347,0.201459 0.10128,0.01541 -0.02862,0.187147 -0.07045,0.200357 z M 15.624604,6.7945507 c -0.08807,0.027522 -0.383101,0.1519196 -0.354479,0.2179717 0.01101,0.02532 0.08587,0.077061 0.209165,0.057245 0.124398,-0.019816 0.303839,-0.03853 0.390808,-0.047337 0.08587,-0.011009 0.104582,-0.1541214 0.01101,-0.1618275 -0.09688,-0.011009 -0.172836,-0.095775 -0.257602,-0.066052 z M 14.56557,6.90794 c -0.06605,0.029723 -0.26751,-0.046236 -0.372093,0.022017 -0.06605,0.040732 -0.02862,0.1794414 0.07706,0.1871474 0.104582,0.011009 0.286225,-0.066052 0.303839,-0.00771 0.01982,0.057245 0.08587,0.3148479 0.257603,0.2289803 0.171735,-0.084767 0.161828,-0.1607266 0.209165,-0.1706344 0.04734,-0.011009 -0.0088,-0.2201734 -0.08587,-0.2675107 -0.07706,-0.047337 -0.323655,-0.018715 -0.389707,0.011009 z M 14.220999,6.0988028 c 0.01871,0.048438 -0.0088,0.085868 0.124398,0.1045824 0.132104,0.019816 0.19045,0.03853 0.267511,0.03853 0.07706,0 0.04734,-0.124398 -0.01871,-0.2091647 -0.06605,-0.085868 -0.04734,-0.077061 -0.220173,-0.124398 a 1.3617724,1.3617724 0 0 0 -0.45686,-0.03853 c -0.11449,0.011009 -0.238888,-0.018715 -0.267511,0.1144901 -0.01431,0.069355 0.07706,0.124398 0.191551,0.124398 0.11449,0 0.361084,-0.055043 0.379799,-0.00881 z m 0.248796,0.5240127 c 0.04844,0.1056832 0.04844,0.057245 0.182744,0.068254 0.132104,0.011009 0.236686,-0.132104 0.246594,-0.1805422 0.01101,-0.048438 -0.06605,-0.1431127 -0.247695,-0.1243979 -0.181643,0.018715 -0.734278,-0.028623 -0.810238,0.03743 -0.07376,0.062749 0,0.2554011 -0.02972,0.2752167 -0.02862,0.018715 0.01101,0.1045823 0.08477,0.085868 0.07706,-0.018715 0.11449,-0.2003578 0.172836,-0.2003578 0.05724,0 0.352278,-0.066052 0.400716,0.03853 z M 12.677584,6.2331086 c 0.05724,0.047337 0.201458,0.00881 0.19045,-0.03853 -0.0088,-0.046236 0.05835,-0.2377872 -0.05504,-0.2465942 -0.115591,-0.00881 -0.275217,0.1056833 -0.449153,0.1629283 -0.110087,0.036329 -0.08587,0.1431127 -0.01101,0.1431127 0.07486,0 0.268611,-0.066052 0.324756,-0.019816 z m 0.812439,0.1717352 c -0.09578,0.047337 -0.125498,0.077061 -0.209164,0.057245 -0.08807,-0.018715 -0.08807,-0.1717352 -0.239989,-0.1431127 -0.15192,0.028622 -0.180542,0.1144902 -0.22788,0.1541214 -0.04734,0.039631 -0.154121,0.066052 -0.19045,0.046236 -0.03743,-0.018715 -0.257603,-0.1431127 -0.257603,-0.1431127 0,0 -0.45796,-0.018715 -0.476675,-0.077061 -0.01871,-0.055043 -0.09467,-0.1508188 -0.30494,-0.132104 -0.210266,0.018715 -0.572451,0.1431127 -0.629696,0.1431127 -0.05724,0 0.06825,0.1144901 -0.01101,0.1144901 -0.07486,0 -0.169533,-0.00881 -0.198156,0.077061 -0.01981,0.057245 0.08587,0.055043 0.209165,0.055043 0.121095,0 0.323655,0 0.3809,-0.027522 0.05724,-0.028623 0.34347,-0.095775 0.333563,-0.011009 -0.01101,0.088069 0.11449,0.2201734 0.180542,0.2014587 0.06605,-0.018715 0.200358,-0.1431127 0.26641,-0.094675 0.06605,0.047337 0.07706,0.1607266 0.143112,0.19045 0.06605,0.027522 0.248796,0.027522 0.334664,0 0.08477,-0.029723 0.323655,-0.029723 0.429338,-0.011009 0.103481,0.022017 0.409522,0.077061 0.438145,0.022017 0.02862,-0.059447 0.11449,-0.068254 0.123297,-0.1254988 0.0088,-0.057245 0.05504,-0.2366864 0.05504,-0.2366864 0,0 -0.05504,-0.1056832 -0.149717,-0.058346 z m 4.827302,9.8604652 c -0.132104,0.02202 -0.09908,0.275217 0.05724,0.231182 0.157424,-0.04734 0.07266,-0.256502 -0.05724,-0.231182 z m 1.24398,-0.341269 c -0.114491,-0.02972 -0.242191,0 -0.330261,0.01321 -0.08477,0.01431 -0.328058,0.22898 -0.328058,0.22898 0,0 0.157424,0.02862 0.256502,0.02862 0.10128,0 0.158525,0.05504 0.242191,0.09908 0.08807,0.04404 0.244392,-0.05725 0.300536,-0.05725 0.05835,0 0.129903,0.171736 0.143113,-0.01431 0.01651,-0.184946 -0.169533,-0.269712 -0.284023,-0.297234 z M 15.576166,6.651438 c -0.04624,-0.1144902 -0.284023,-0.1541214 -0.333562,-0.03853 -0.04183,0.099078 0.382,0.1541213 0.334663,0.03853 z m 2.727948,8.570249 c 0.157424,-0.02862 0.07046,-0.158525 -0.05834,-0.143113 -0.129903,0.01431 -0.09908,0.171736 0.05834,0.143113 z m 1.901198,0.883996 c -0.132104,0.02422 -0.10128,0.27852 0.05504,0.231182 0.159626,-0.04403 0.07376,-0.253199 -0.05504,-0.231182 z m -1.731664,-0.426035 c -0.09908,0.01431 -0.313747,-0.09908 -0.429338,-0.200358 -0.113389,-0.09908 -0.328058,-0.09908 -0.413926,-0.09908 -0.08367,0 -0.429338,0.09908 -0.429338,0.09908 -0.01321,0.143113 0.129902,0.09908 0.301637,0.09908 0.171736,0 0.473373,-0.02752 0.528416,0.04404 0.05725,0.07045 0.313748,0.184945 0.385304,0.24219 0.07156,0.05835 0.300537,0.07266 0.314848,0.01541 0.01431,-0.05725 -0.156323,-0.21467 -0.256502,-0.200358 z M 16.767304,6.5468556 c -0.143112,-0.011009 -0.323655,-0.011009 -0.438145,0 -0.115591,0.00881 -0.201458,-0.077061 -0.286225,-0.1243979 -0.08587,-0.048438 -0.277419,-0.2014587 -0.390808,-0.2201734 -0.11449,-0.018715 -0.09468,-0.018715 -0.333563,-0.077061 -0.121095,-0.028622 -0.323655,-0.066052 -0.323655,-0.093574 0,-0.028622 -0.05724,0.1321041 0.04734,0.1816431 0.105683,0.047337 0.277418,0.132104 0.400715,0.1805421 0.125499,0.047337 0.363286,0.057245 0.440347,0.1541214 0.07486,0.093574 0.332462,0.1706344 0.332462,0.1706344 l 0.30494,0.027522 c 0,0 0.209165,-0.047337 0.429338,-0.028623 0.220174,0.017614 0.542728,0.046236 0.726572,0.03743 0.178341,-0.00881 0.206963,-0.066052 0.22788,-0.1045824 0.01761,-0.039631 -0.334664,-0.115591 -0.421632,-0.1056832 -0.08367,0.00661 -0.572451,0.00661 -0.715564,-0.0022 z m 0.533921,2.192927 c -0.03743,0.044035 0.172836,0.1045823 0.209164,0.047337 0.03853,-0.055043 -0.110086,-0.1519197 -0.209164,-0.047337 z m 0.640704,0.198156 c 0.09468,-0.037429 0.04734,-0.1519196 -0.08807,-0.1133893 -0.150819,0.044035 -0.0088,0.1541214 0.08807,0.1155911 z"
     id="path2"
     style="stroke-width:1.10087" />
</svg>
