<?xml version="1.0" encoding="UTF-8" standalone="no"?>
<!-- Created using Krita: http://krita.org -->

<svg
   width="92.16pt"
   height="92.16pt"
   viewBox="0 0 92.16 92.16"
   version="1.1"
   id="svg90"
   sodipodi:docname="players_icon.svg"
   inkscape:version="1.2.1 (9c6d41e410, 2022-07-14, custom)"
   xmlns:inkscape="http://www.inkscape.org/namespaces/inkscape"
   xmlns:sodipodi="http://sodipodi.sourceforge.net/DTD/sodipodi-0.dtd"
   xmlns="http://www.w3.org/2000/svg"
   xmlns:svg="http://www.w3.org/2000/svg">
  <defs
     id="defs86" />
  <path
     id="shape0"
     d="m 0,0 c 0,30.720215 0,61.44043 0,92.160644 30.720216,0 61.440432,0 92.160648,0 0,-30.720214 0,-61.440429 0,-92.160644 C 61.440432,0 30.720216,0 0,0 Z m 12.240234,23.040527 c 22.560059,0 45.120118,0 67.680176,0 0,4.07959 0,8.15918 0,12.23877 2.639648,0 5.279292,0 7.918942,0 0,17.520019 0,35.040039 0,52.560059 -6.239745,0 -12.47949,0 -18.719235,0 0,-6.239746 0,-12.479493 0,-18.719239 -4.080078,0 -8.160156,0 -12.240234,0 0,4.080078 0,8.160156 0,12.240234 -7.200195,0 -14.400391,0 -21.600586,0 0,-4.080078 0,-8.160156 0,-12.240234 -4.07959,0 -8.15918,0 -12.23877,0 0,6.239746 0,12.479493 0,18.719239 -6.240234,0 -12.480468,0 -18.7207027,0 0,-17.52002 0,-35.04004 0,-52.560059 2.6401367,0 5.2802734,0 7.9204097,0 0,-4.07959 0,-8.15918 0,-12.23877 z m 23.039063,46.07959 c 7.200195,0 14.400391,0 21.600586,0 0,-3.600098 0,-7.200195 0,-10.800293 -7.200195,0 -14.400391,0 -21.600586,0 0,3.600098 0,7.200195 0,10.800293 z m 0,-10.800293 c 0,-4.080078 0,-8.160156 0,-12.240234 -7.679687,0 -15.359375,0 -23.039063,0 0,4.080078 0,8.160156 0,12.240234 7.679688,0 15.359376,0 23.039063,0 z m 21.600586,0 c 7.680176,0 15.360351,0 23.040527,0 0,-4.080078 0,-8.160156 0,-12.240234 -7.680176,0 -15.360351,0 -23.040527,0 0,4.080078 0,8.160156 0,12.240234 z M 12.959473,46.800293 c 3.360351,0 6.720702,0 10.081054,0 0,3.600098 0,7.200195 0,10.800293 -3.360352,0 -6.720703,0 -10.081054,0 0,-3.600098 0,-7.200195 0,-10.800293 z m 56.160644,0 c 3.359864,0 6.719727,0 10.07959,0 0,3.600098 0,7.200195 0,10.800293 -3.359863,0 -6.719726,0 -10.07959,0 0,-3.600098 0,-7.200195 0,-10.800293 z"
     style="stroke-width:0.72" />
</svg>
